<svg viewBox="0 0 718 751" fill="none" xmlns="http://www.w3.org/2000/svg" aria-label="Megabirthday balloons mark"><title>Megabirthday balloons mark</title>&gt;<path fill-rule="evenodd" clip-rule="evenodd" d="M451 1.077c-15.806 2.845-27.975 6.555-40.595 12.376-8.017 3.699-22.156 12.75-28.003 17.928a611.39 611.39 0 0 1-7.652 6.641c-4.616 3.921-14.984 16.352-20.597 24.694C349.23 70.034 340 88.546 340 91.102c0 .979-.45 2.058-1 2.398-.55.34-1.003 1.604-1.006 2.809-.004 1.205-.668 3.46-1.477 5.011-1.491 2.859-4.36 15.281-5.007 21.68-.194 1.925-.828 7.516-1.407 12.425-.579 4.909-.851 9.859-.604 11s.643 5.225.882 9.075c.238 3.85.732 7.745 1.097 8.655.512 1.278-.093 1.817-2.657 2.366-1.827.39-3.771 1.046-4.321 1.456-.55.41-2.575.989-4.5 1.288-3.492.54-14.556 5.481-22.908 10.23-7.172 4.077-14.362 10.042-23.264 19.3-22.012 22.891-33.84 48.657-36.839 80.245-2.313 24.359 2.202 57.391 10.466 76.583 7.356 17.082 10.196 22.596 16.933 32.877 3.244 4.95 8.472 12.15 11.618 16 11.664 14.274 36.34 35.852 46.494 40.657 2.2 1.041 5.125 2.516 6.5 3.278 1.375.761 4.3 2.166 6.5 3.122 2.2.955 4.781 2.121 5.736 2.59.955.469 2.53.856 3.5.859.97.004 3.01.656 4.533 1.451 1.523.794 5.955 1.886 9.849 2.425 7.781 1.079 8.828 1.572 7.065 3.335-.65.651-1.183 1.999-1.183 2.997 0 .997-.404 2.595-.897 3.55-.494.955-2.142 7.103-3.663 13.663-2.764 11.92-2.765 11.93-.853 15.433 2.666 4.885 6.996 6.989 15.116 7.343 6.797.297 6.797.297 7.476 8.797.373 4.675 1.61 11.371 2.75 14.88 1.139 3.509 2.071 7.002 2.071 7.761 0 2.514 11.303 26.24 18.779 39.419 10.945 19.296 13.699 24.846 17.389 35.04 2.222 6.14 4.362 13.533 4.755 16.429 1.081 7.964.561 35.495-.745 39.471-.632 1.925-2.087 7.325-3.233 12-1.145 4.675-4.301 13.104-7.014 18.731-5.722 11.871-6.061 14.812-2.145 18.564 7.566 7.248 13.946 3.119 22.627-14.645 10.735-21.968 15.582-49.989 12.512-72.328-.592-4.302-1.492-8.25-2-8.772-.509-.523-.925-1.812-.925-2.866 0-6.56-9.214-27.453-21.471-48.684-15.782-27.339-20.427-38.914-23.068-57.483-.783-5.509-1.433-10.296-1.443-10.638-.01-.341 2.601-.917 5.802-1.279 7.311-.827 12.091-3.353 14.497-7.66 3.388-6.066.551-13.978-10.481-29.226-2.701-3.732-4.65-7.206-4.332-7.721.319-.515 2.638-1.847 5.154-2.96 7.238-3.202 16.175-10.091 24.934-19.221 7.796-8.127 18.408-22.043 18.408-24.14 0-.558.688-1.775 1.529-2.704 2.022-2.234 11.239-23.121 13.003-29.468.765-2.75 2.513-8.732 3.884-13.294 1.372-4.562 3.035-11.987 3.696-16.5 1.269-8.669 2.397-11.315 3.462-8.123.352 1.054 1.226 3.267 1.943 4.917.717 1.65 1.83 5.025 2.474 7.5.645 2.475 1.739 5.4 2.432 6.5 2.165 3.435 2.79 7.668 2.623 17.779-.228 13.856-5.503 48.714-8.165 53.957-.484.955-.881 2.649-.881 3.764 0 1.115-.411 2.809-.914 3.764-.502.955-1.452 4.436-2.111 7.736-.659 3.3-1.541 6.45-1.961 7-.419.55-1.012 2.35-1.317 4-.304 1.65-1.688 7.725-3.074 13.5-4.933 20.549-5.745 25.716-6.837 43.499-.849 13.838-.818 20.775.136 30 1.269 12.284 4.384 31.852 6.207 39.001.561 2.2 1.008 4.879.992 5.954-.015 1.075.35 2.425.812 3 2.428 3.027 4.886 27.708 5.085 51.055.106 12.519-2.446 39.073-3.933 40.921-.473.589-1.104 2.87-1.402 5.07-.298 2.2-1.534 9.4-2.746 16-2.936 15.974-3.7 37.124-1.496 41.386 1.685 3.257 6.111 6.114 9.475 6.114 1.108 0 3.535-1.335 5.394-2.967 3.379-2.967 3.379-2.967 3.97-18.864.585-15.716.81-17.183 8.398-54.669 1.492-7.369 1.811-13.622 1.764-34.5-.051-22.366-.339-26.913-2.339-37-1.254-6.325-2.73-14.2-3.281-17.5-.55-3.3-1.621-9.15-2.38-13-4.013-20.352-4.737-26.838-4.968-44.5-.256-19.481.806-29.52 4.705-44.5 1.145-4.4 2.593-10.332 3.217-13.182.624-2.851 1.466-5.513 1.87-5.917.404-.404.734-1.814.734-3.133 0-1.32.441-3.224.981-4.232 1.592-2.976 7.831-28.866 9.045-37.536.616-4.4 1.303-9.125 1.527-10.5.224-1.375.756-4.975 1.183-8 .774-5.5.774-5.5 3.035-1.856 4.893 7.886 24.369 23.772 34.072 27.791 1.736.719 3.157 1.636 3.157 2.036 0 .691-1.278 2.447-9.483 13.029-4.164 5.369-7.517 13.698-7.517 18.669 0 7.715 6.858 13.497 17.667 14.897 5.167.67 5.167.67 5.5 6.65.183 3.288-.004 6.187-.417 6.441-.413.253-.75 1.712-.75 3.242 0 3.515-6.005 26.49-8.129 31.101-2.408 5.228-3.966 8.873-8.977 21-2.841 6.875-6.182 14.75-7.423 17.5-3.392 7.512-7.471 21.158-7.471 24.993 0 1.864-.391 3.63-.868 3.926-2.697 1.666-3.896 42.845-1.634 56.104 2.998 17.574 9.423 33.99 17.995 45.977 6.648 9.297 8.716 10.888 13.218 10.172 7.436-1.182 11.472-9.189 7.899-15.672-8.139-14.765-10.382-19.353-11.976-24.5-1.022-3.3-2.23-6.462-2.683-7.027-3.595-4.474-6.005-46.879-3.332-58.628 3.39-14.898 5.902-22.11 12.141-34.845a5510.854 5510.854 0 0 0 8.786-18c2.197-4.549 6.094-15.913 8.917-26 2.688-9.604 4.749-26.089 4.095-32.75-.614-6.25-.614-6.25 5.164-6.354 12.7-.23 13.451-.407 16.574-3.902 2.79-3.122 2.929-3.677 2.386-9.492-.317-3.397-1.003-7.262-1.525-8.589-.522-1.327-1.497-4.438-2.167-6.913-.67-2.475-1.554-5.4-1.965-6.5-1.715-4.587-3.186-9.667-2.867-9.899.188-.137 4.167-1.039 8.842-2.005 4.675-.965 9.807-2.394 11.404-3.175 1.597-.782 3.52-1.421 4.275-1.421.754 0 4.397-1.578 8.096-3.507 6.969-3.634 7.692-4.058 15.209-8.907 8.512-5.492 27.202-21.925 35.092-30.855 7.512-8.502 16.924-20.863 16.924-22.227 0-.351 1.068-2.07 2.373-3.821 2.007-2.692 8.867-16.361 11.635-23.183.447-1.1 1.733-4.025 2.859-6.5 2.258-4.963 4.669-13.287 6.524-22.523.666-3.312 1.515-6.517 1.889-7.12.373-.604.932-3.744 1.244-6.977.311-3.234.986-8.805 1.501-12.38 1.21-8.411 1.211-19.93.001-27.5-.528-3.3-1.041-7.8-1.141-10-.29-6.373-3.782-21.33-6.008-25.736-.482-.955-.877-2.465-.877-3.355 0-.89-1.125-3.858-2.5-6.596-1.375-2.737-2.5-5.46-2.5-6.049 0-.927-4.441-9.103-8.271-15.229-11.578-18.514-29.635-33.702-51.229-43.09-2.2-.957-4.789-2.128-5.754-2.603-2.526-1.244-17.378-4.861-23.246-5.66-2.75-.375-8.487-.682-12.749-.682-7.749 0-7.749 0-7.75-5.564-.002-9.261-2.86-27.948-5.572-36.436-3.892-12.177-14.15-32.286-19.679-38.577-1.513-1.721-2.75-3.367-2.75-3.659 0-1.099-12.123-13.607-18.563-19.154-8.767-7.55-30.205-20.1-34.364-20.116-.865-.004-2.862-.679-4.437-1.5C508.06 6.672 505.949 6 504.945 6c-1.005 0-2.064-.384-2.354-.853-.29-.469-4.029-1.381-8.309-2.025-4.28-.645-9.701-1.611-12.046-2.147-4.975-1.137-24.707-1.073-31.236.102Zm37.5 22.325c29.192 6.248 54.631 25.106 70.554 52.301 8.161 13.938 13.351 31.553 14.576 49.474.661 9.677.661 9.677-6.508 11.855-16.223 4.927-34.978 16.314-49.485 30.043-22.291 21.096-39.593 51.924-45.621 81.282-.661 3.221-1.554 5.471-1.985 5-.43-.471-2.484-4.682-4.564-9.357-9.914-22.284-25.592-41.514-46.381-56.891-15.418-11.404-34.738-19.068-53.864-21.366-8.081-.971-9.337-1.381-9.74-3.179-9.895-44.089 9.196-91.433 48.018-119.087 26.453-18.843 57.024-26.063 85-20.075ZM114.477 88.695c-8.263 5.943-26.46 18.905-40.438 28.805-67.213 47.604-70.503 50.042-72.287 53.556-1.429 2.815-1.749 6.131-1.75 18.152C0 203.916 0 203.916 3.845 207.958c4.651 4.888 8.18 5.241 15.655 1.564 2.75-1.353 5.569-2.474 6.264-2.491.695-.017 2.045-.432 3-.922.955-.491 10.286-4.145 20.736-8.121 10.45-3.976 19.427-7.625 19.95-8.109.522-.483 1.803-.879 2.846-.879 1.042 0 3.09-.62 4.55-1.378 3.644-1.892 7.199-3.368 10.067-4.178 1.327-.375 4.027-1.38 6-2.233 1.973-.853 6.4-2.556 9.837-3.784 6.25-2.234 6.25-2.234 6.26 164.92.01 177.47-.063 180.471-4.756 194.653-7.432 22.462-21.936 30.852-58.754 33.99-17.784 1.515-22.847 3.066-26.11 7.997-2.45 3.702-2.546 4.388-2.225 15.889.335 12.019.335 12.019 3.781 15.571C24.392 614 24.392 614 153.093 614c128.7 0 128.7 0 131.803-3.535C288 606.93 288 606.93 288 593.81c0-12.44-.129-13.291-2.489-16.384-3.158-4.141-6.207-5.072-21.011-6.415-43.488-3.948-57.235-13.445-63.707-44.011-.859-4.06-1.25-62.429-1.491-222.945-.358-237.86.128-219.76-6.02-223.791-2.394-1.57-6.058-1.798-33.236-2.069-30.546-.304-30.546-.304-45.569 10.5Zm507.599 67.393c9.726 2.696 24.013 9.624 31.593 15.323 27.634 20.773 43.796 57.932 42.008 96.589-1.881 40.688-17.239 75.796-46.404 106.078-24.892 25.847-41.742 35.232-67.273 37.47-23.913 2.095-44.026-11.313-61.497-40.999-11.832-20.105-20.545-43.379-25.1-67.049-2.512-13.051-2.561-43.097-.089-54 6.519-28.745 18.794-50.859 36.509-65.775 14.68-12.359 30.857-22.21 43.019-26.196 14.889-4.88 32.846-5.428 47.234-1.441ZM375.5 189.9c11.651 3.07 28.399 11.809 38.902 20.297 37.39 30.217 53.019 86.308 39.096 140.302-3.896 15.108-8.015 25.75-17.221 44.498-6.184 12.593-7.27 14.143-16.203 23.117-8.226 8.265-10.912 10.274-19.074 14.268-11.119 5.44-18.645 7.066-29 6.262-10.481-.813-17.849-2.964-28.402-8.289-26.93-13.59-44.832-29.832-60.268-54.677-27.497-44.259-32.372-98.654-12.233-136.497 13.845-26.017 37.993-45.186 63.903-50.727 9.408-2.012 30.198-1.27 40.5 1.446Zm197.143 253.175c1.729 4.084 3.437 9.113 3.796 11.175.652 3.75.652 3.75-3.144 3.719-4.596-.037-18.438-1.779-19.057-2.398-1.894-1.894 11.516-21.142 14.134-20.288.621.202 2.542 3.709 4.271 7.792ZM391.309 466.25c5.839 7.209 9.74 14.143 8.384 14.902-1.151.644-15.287 2.848-18.265 2.848-2.508 0-1.566-7.355 2.274-17.75.863-2.337 2.153-4.25 2.867-4.25.713 0 2.846 1.913 4.74 4.25Z" fill="currentColor"/></svg>