<svg viewBox="0 0 410 409" xmlns="http://www.w3.org/2000/svg" aria-label="Megabirthday favicon mark"><title>Megabirthday favicon mark</title><path fill="currentColor" fill-rule="evenodd" clip-rule="evenodd" d="M239.005 1.018c-40.233 4.21-84.567 22.579-120.449 49.908C33.257 115.894-7.318 221.345 21.08 304.256c5.284 15.427 14.831 32.833 24.106 43.95 4.508 5.402 7.865 3.692-26.186 13.336C5.221 365.445.5 367.177.5 368.33c0 .852 7.825 10.374 17.39 21.16 13.501 15.228 17.859 19.545 19.49 19.311 1.724-.247 3.769-4.332 11.388-22.745 5.107-12.344 9.449-22.606 9.648-22.805.199-.199 4.344 2.833 9.211 6.738 32.183 25.822 75.815 36.659 122.797 30.5 74.538-9.771 149.48-63.873 189.756-136.989 18.548-33.67 28.284-67.305 29.526-102.005.647-18.061-.45-30.072-4.339-47.495-12.929-57.923-58.55-100.754-118.345-111.107-13.248-2.294-35.65-3.168-48.017-1.875ZM281 43.585c42.665 7.542 73.211 35.255 83.481 75.742 3.207 12.641 4.523 22.876 4.499 34.995-.065 34.196-12.73 73.367-34.265 105.979-5.481 8.3-6.134 8.956-6.686 6.714-.659-2.678-3.218-4.263-9.529-5.904-4-1.041-4-1.041-3.7-43.826.385-54.991-.719-63.231-9.862-73.618-7.597-8.631-16.057-11.935-30.438-11.888-12.798.042-23.305 3.085-40.549 11.745-9.111 4.576-9.111 4.576-13.06.09-7.402-8.41-15.995-11.827-29.891-11.887-12.326-.053-25.921 3.848-40.5 11.621-5 2.666-5 2.666-5.738-1.591-.406-2.341-1.505-4.819-2.441-5.507-1.25-.917-8.04-1.25-25.512-1.25-13.095 0-23.809-.286-23.809-.636 0-1.547 16.301-20.726 24.969-29.376C165.226 57.826 227.94 34.206 281 43.585ZM92.511 150.002C98 151.142 98 151.142 98 206s0 54.858-5.503 56.001c-6.101 1.266-7.497 2.826-7.497 8.377 0 6.567.31 6.622 37.523 6.622 24.393 0 33.392-.315 34.277-1.2.66-.66 1.2-3.29 1.2-5.845 0-5.524-1.717-7.446-7.5-8.392-4-.654-4-.654-3.761-50.798.132-27.579.582-50.43 1-50.781 2.185-1.829 10.704-3.484 17.93-3.484 7.334 0 8.444.256 10.845 2.5 6.132 5.729 5.957 4.198 6.298 55.193.313 46.693.313 46.693-3.5 47.362-6.689 1.175-8.312 2.821-8.312 8.433 0 3.862.423 5.168 1.934 5.977 1.221.653 14.017 1.035 34.672 1.035 36.752 0 36.394.068 36.394-6.964 0-5.024-1.66-6.862-7.5-8.303-5-1.233-5-1.233-5.586-48.733-.323-26.125-.937-48.507-1.364-49.737-.687-1.979-.217-2.477 4.072-4.315 2.875-1.233 8.136-2.311 12.927-2.649 10.169-.717 14.5 1.012 17.751 7.089 2.163 4.043 2.205 4.9 2.504 50.807.304 46.694.304 46.694-3.5 47.362-6.681 1.172-8.304 2.821-8.304 8.431 0 3.862.423 5.168 1.934 5.977 1.216.651 13.654 1.035 33.5 1.035 18.671 0 31.566.378 31.566.925 0 1.871-26.679 28.481-36.435 36.341-58.275 46.95-128.981 59.877-179.237 32.77-55.97-30.191-69.503-107.262-31.951-181.967 7.799-15.516 10.631-19.806 11.752-17.804.491.879 3.364 2.111 6.382 2.737Z"/></svg>